<mxfile host="app.diagrams.net" modified="2023-04-06T01:01:20.708Z" agent="Mozilla/5.0 (Windows NT 10.0; Win64; x64) AppleWebKit/537.36 (KHTML, like Gecko) Chrome/111.0.0.0 Safari/537.36" etag="BpG3HhADdFWOHsOiwVeO" version="21.1.0" type="device">
  <diagram name="Page-1" id="owK48GK35fQn0bjkq7Zk">
    <mxGraphModel dx="860" dy="420" grid="1" gridSize="10" guides="1" tooltips="1" connect="1" arrows="1" fold="1" page="1" pageScale="1" pageWidth="850" pageHeight="1100" math="0" shadow="0">
      <root>
        <mxCell id="0" />
        <mxCell id="1" parent="0" />
        <mxCell id="iIRNpaUrSD7ntUoQAg4r-6" value="" style="shape=image;verticalLabelPosition=bottom;labelBackgroundColor=default;verticalAlign=top;aspect=fixed;imageAspect=0;image=https://www.worldbank.org/content/dam/photos/780x439/2021/apr/Shiny-logo.png;" vertex="1" parent="1">
          <mxGeometry x="380" y="298" width="50" height="28.16" as="geometry" />
        </mxCell>
        <mxCell id="iIRNpaUrSD7ntUoQAg4r-26" style="edgeStyle=orthogonalEdgeStyle;rounded=0;orthogonalLoop=1;jettySize=auto;html=1;" edge="1" parent="1" source="iIRNpaUrSD7ntUoQAg4r-12" target="iIRNpaUrSD7ntUoQAg4r-21">
          <mxGeometry relative="1" as="geometry" />
        </mxCell>
        <mxCell id="iIRNpaUrSD7ntUoQAg4r-12" value="" style="shape=image;verticalLabelPosition=bottom;labelBackgroundColor=default;verticalAlign=top;aspect=fixed;imageAspect=0;image=https://i1.sndcdn.com/avatars-5kMd7CfkeKR970IM-HVYgHQ-t500x500.jpg;" vertex="1" parent="1">
          <mxGeometry x="651" y="311" width="38" height="38" as="geometry" />
        </mxCell>
        <mxCell id="iIRNpaUrSD7ntUoQAg4r-19" style="edgeStyle=orthogonalEdgeStyle;rounded=0;orthogonalLoop=1;jettySize=auto;html=1;entryX=0.002;entryY=0.062;entryDx=0;entryDy=0;entryPerimeter=0;" edge="1" parent="1" source="iIRNpaUrSD7ntUoQAg4r-14" target="iIRNpaUrSD7ntUoQAg4r-17">
          <mxGeometry relative="1" as="geometry" />
        </mxCell>
        <mxCell id="iIRNpaUrSD7ntUoQAg4r-14" value="User" style="shape=umlActor;verticalLabelPosition=bottom;verticalAlign=top;html=1;outlineConnect=0;" vertex="1" parent="1">
          <mxGeometry x="131" y="242" width="30" height="60" as="geometry" />
        </mxCell>
        <mxCell id="iIRNpaUrSD7ntUoQAg4r-15" value="Navigation" style="swimlane;fontStyle=0;childLayout=stackLayout;horizontal=1;startSize=30;horizontalStack=0;resizeParent=1;resizeParentMax=0;resizeLast=0;collapsible=1;marginBottom=0;whiteSpace=wrap;html=1;" vertex="1" parent="1">
          <mxGeometry x="220" y="210" width="210" height="120" as="geometry" />
        </mxCell>
        <mxCell id="iIRNpaUrSD7ntUoQAg4r-16" value="Prompt 1" style="text;strokeColor=none;fillColor=none;align=left;verticalAlign=middle;spacingLeft=4;spacingRight=4;overflow=hidden;points=[[0,0.5],[1,0.5]];portConstraint=eastwest;rotatable=0;whiteSpace=wrap;html=1;" vertex="1" parent="iIRNpaUrSD7ntUoQAg4r-15">
          <mxGeometry y="30" width="210" height="30" as="geometry" />
        </mxCell>
        <mxCell id="iIRNpaUrSD7ntUoQAg4r-17" value="Prompt 2" style="text;strokeColor=none;fillColor=none;align=left;verticalAlign=middle;spacingLeft=4;spacingRight=4;overflow=hidden;points=[[0,0.5],[1,0.5]];portConstraint=eastwest;rotatable=0;whiteSpace=wrap;html=1;" vertex="1" parent="iIRNpaUrSD7ntUoQAg4r-15">
          <mxGeometry y="60" width="210" height="30" as="geometry" />
        </mxCell>
        <mxCell id="iIRNpaUrSD7ntUoQAg4r-18" value="..." style="text;strokeColor=none;fillColor=none;align=left;verticalAlign=middle;spacingLeft=4;spacingRight=4;overflow=hidden;points=[[0,0.5],[1,0.5]];portConstraint=eastwest;rotatable=0;whiteSpace=wrap;html=1;" vertex="1" parent="iIRNpaUrSD7ntUoQAg4r-15">
          <mxGeometry y="90" width="210" height="30" as="geometry" />
        </mxCell>
        <mxCell id="iIRNpaUrSD7ntUoQAg4r-23" style="edgeStyle=orthogonalEdgeStyle;rounded=0;orthogonalLoop=1;jettySize=auto;html=1;" edge="1" parent="1" source="iIRNpaUrSD7ntUoQAg4r-20" target="iIRNpaUrSD7ntUoQAg4r-21">
          <mxGeometry relative="1" as="geometry" />
        </mxCell>
        <mxCell id="iIRNpaUrSD7ntUoQAg4r-20" value="" style="shape=image;html=1;verticalAlign=top;verticalLabelPosition=bottom;labelBackgroundColor=#ffffff;imageAspect=0;aspect=fixed;image=https://cdn1.iconfinder.com/data/icons/ionicons-fill-vol-2/512/logo-python-128.png" vertex="1" parent="1">
          <mxGeometry x="651" y="210" width="40" height="40" as="geometry" />
        </mxCell>
        <mxCell id="iIRNpaUrSD7ntUoQAg4r-30" style="edgeStyle=orthogonalEdgeStyle;rounded=0;orthogonalLoop=1;jettySize=auto;html=1;entryX=1;entryY=0.75;entryDx=0;entryDy=0;" edge="1" parent="1" source="iIRNpaUrSD7ntUoQAg4r-21" target="iIRNpaUrSD7ntUoQAg4r-15">
          <mxGeometry relative="1" as="geometry" />
        </mxCell>
        <mxCell id="iIRNpaUrSD7ntUoQAg4r-21" value="" style="sketch=0;pointerEvents=1;shadow=0;dashed=0;html=1;strokeColor=none;fillColor=#505050;labelPosition=center;verticalLabelPosition=bottom;verticalAlign=top;outlineConnect=0;align=center;shape=mxgraph.office.concepts.script;" vertex="1" parent="1">
          <mxGeometry x="507.5" y="250" width="73" height="61" as="geometry" />
        </mxCell>
        <mxCell id="iIRNpaUrSD7ntUoQAg4r-27" style="edgeStyle=orthogonalEdgeStyle;rounded=0;orthogonalLoop=1;jettySize=auto;html=1;exitX=1;exitY=0.5;exitDx=0;exitDy=0;" edge="1" parent="1" source="iIRNpaUrSD7ntUoQAg4r-16" target="iIRNpaUrSD7ntUoQAg4r-21">
          <mxGeometry relative="1" as="geometry" />
        </mxCell>
      </root>
    </mxGraphModel>
  </diagram>
</mxfile>
